<!DOCTYPE svg PUBLIC "-//W3C//DTD SVG 20010904//EN" "http://www.w3.org/TR/2001/REC-SVG-20010904/DTD/svg10.dtd">
<svg version="1.0" xmlns="http://www.w3.org/2000/svg" width="281px" height="255px" viewBox="0 0 2810 2550" preserveAspectRatio="xMidYMid meet">
<g id="layer101" fill="#020202" stroke="none">
 <path d="M0 1275 l0 -1275 1405 0 1405 0 0 1275 0 1275 -1405 0 -1405 0 0 -1275z"/>
 </g>
<g id="layer102" fill="#303030" stroke="none">
 <path d="M0 1275 l0 -1275 1405 0 1405 0 0 1275 0 1275 -1405 0 -1405 0 0 -1275z m1588 751 c7 -4 25 -6 40 -5 15 1 35 -2 45 -6 9 -4 24 -5 32 -2 8 4 17 2 21 -4 3 -6 12 -8 20 -5 7 3 16 1 19 -5 4 -5 12 -9 18 -7 7 1 28 -5 48 -14 20 -9 46 -19 59 -23 13 -4 45 -23 72 -41 26 -19 52 -34 57 -34 5 0 11 -7 15 -15 3 -8 17 -20 31 -25 14 -5 28 -18 32 -27 4 -10 15 -29 26 -43 67 -88 63 -244 -11 -347 -12 -17 -22 -35 -22 -41 0 -5 -36 -42 -80 -81 -44 -40 -80 -79 -80 -86 0 -7 -7 -15 -15 -19 -8 -3 -15 -12 -15 -21 0 -8 -4 -15 -10 -15 -16 0 -42 -61 -45 -104 -3 -58 15 -95 74 -154 63 -63 136 -102 201 -107 66 -5 82 9 86 75 3 54 -5 82 -48 163 -11 21 -17 41 -14 45 10 9 76 -29 76 -44 0 -7 8 -19 18 -26 27 -21 74 -115 70 -144 -2 -20 -16 -34 -53 -55 -27 -15 -63 -30 -80 -33 -16 -2 -32 -5 -35 -6 -3 -1 -15 -1 -27 -1 -11 1 -24 -3 -28 -8 -3 -6 -17 -11 -30 -11 -13 0 -27 5 -30 11 -4 5 -17 9 -28 9 -28 -2 -58 7 -115 36 -35 18 -49 21 -59 12 -10 -8 -17 -8 -25 0 -14 14 -134 16 -142 4 -7 -11 -487 -9 -504 2 -8 4 -38 5 -68 1 -37 -4 -60 -3 -69 5 -8 7 -26 9 -39 6 -14 -3 -28 -1 -32 5 -3 6 -15 9 -25 6 -10 -3 -22 -1 -25 4 -3 5 -11 9 -17 8 -19 -2 -58 12 -122 45 -76 40 -107 83 -103 145 3 39 7 46 29 52 23 6 28 2 44 -37 10 -24 25 -50 34 -58 39 -35 214 -111 231 -101 5 3 12 0 15 -6 4 -5 14 -8 22 -5 8 3 20 3 26 -1 7 -4 23 -9 37 -10 14 -2 43 -5 65 -7 113 -12 175 -14 175 -5 0 6 -18 37 -40 70 -22 33 -40 64 -40 69 0 4 -16 32 -36 61 -20 30 -47 77 -60 104 -13 28 -40 77 -58 110 -19 33 -42 75 -50 93 -16 31 -18 32 -76 32 -55 0 -60 2 -60 22 0 27 27 58 52 58 10 0 18 5 18 11 0 6 -25 61 -56 122 -31 62 -65 132 -76 157 -11 25 -26 59 -33 75 -43 95 -41 148 3 161 60 17 64 14 88 -66 13 -41 28 -86 35 -100 10 -23 18 -40 54 -125 7 -16 39 -84 71 -150 33 -66 60 -121 60 -123 1 -2 12 -5 25 -6 13 -2 31 -6 39 -9 30 -13 112 -27 120 -22 5 3 11 1 14 -4 3 -5 39 -8 81 -6 60 2 78 -1 90 -15 14 -16 13 -18 -15 -30 -18 -7 -43 -9 -62 -5 -18 4 -55 8 -83 11 -75 6 -108 11 -128 19 -33 14 -42 -10 -18 -47 11 -18 28 -49 37 -68 9 -19 29 -54 45 -78 16 -24 29 -46 29 -50 0 -4 23 -43 52 -87 96 -148 94 -143 80 -166 -7 -10 -12 -20 -12 -21 0 -2 81 -4 180 -4 99 -1 180 1 180 3 0 3 -14 28 -32 55 -43 66 -42 123 2 185 16 24 30 48 30 53 0 4 14 19 31 32 71 52 223 215 242 257 26 60 26 153 -1 214 -12 26 -26 47 -31 47 -6 0 -11 5 -11 12 0 16 -61 78 -77 78 -7 0 -13 4 -13 9 0 9 -56 48 -123 85 -51 29 -175 68 -188 60 -6 -3 -18 -2 -27 2 -15 6 -92 15 -142 16 -30 1 -94 -12 -102 -20 -4 -4 -10 -21 -14 -37 -4 -24 1 -39 31 -78 20 -26 41 -47 47 -47 6 0 16 -7 22 -15 15 -20 142 -90 211 -115 11 -5 36 -15 57 -24 20 -9 41 -16 48 -16 6 0 9 -4 6 -9 -9 -13 -60 -20 -72 -10 -6 5 -31 11 -55 13 -24 2 -57 9 -72 15 -15 6 -31 10 -35 9 -7 -1 -34 9 -102 41 -39 18 -116 75 -142 106 -29 35 -30 63 -4 121 14 30 30 54 37 54 6 0 24 11 40 24 15 13 46 27 69 31 22 4 42 10 44 13 6 9 119 7 134 -2z"/>
 </g>
<g id="layer103" fill="#ffffff" stroke="none">
 <path d="M0 1275 l0 -1275 1405 0 1405 0 0 1275 0 1275 -1405 0 -1405 0 0 -1275z m899 715 c50 -164 212 -526 240 -534 55 -17 234 -47 287 -49 63 -3 109 -25 90 -44 -10 -10 -137 -10 -249 1 l-88 8 24 -48 c33 -66 105 -187 184 -311 42 -66 63 -110 61 -125 l-3 -23 155 4 c85 2 156 4 158 6 1 1 -9 24 -23 50 -16 32 -25 64 -25 95 0 62 44 123 189 258 128 120 171 189 171 276 0 178 -235 361 -520 404 -111 17 -210 2 -224 -35 -8 -21 21 -73 63 -111 53 -49 161 -111 265 -153 107 -43 120 -65 36 -63 -152 3 -377 103 -431 190 -45 73 -1 162 105 216 73 37 147 45 268 29 174 -23 286 -68 404 -162 107 -85 151 -173 141 -281 -9 -96 -52 -172 -167 -295 -156 -165 -186 -233 -141 -322 26 -49 91 -107 155 -137 171 -80 220 -16 141 181 -25 62 -20 84 16 64 42 -22 139 -169 139 -210 0 -9 -14 -31 -31 -48 -42 -42 -123 -65 -234 -65 -78 0 -98 4 -150 28 l-60 28 -405 2 c-330 2 -421 6 -492 19 -209 40 -317 116 -304 212 4 36 34 75 56 75 5 0 14 -15 20 -34 14 -44 87 -111 148 -137 71 -31 245 -68 355 -75 53 -4 97 -4 97 -1 0 3 -26 49 -58 104 -32 54 -98 171 -146 260 l-88 162 -61 3 c-59 3 -62 4 -65 30 -3 28 27 58 60 58 13 0 4 27 -49 138 -144 304 -158 357 -100 392 48 30 70 23 86 -30z"/>
 </g>

</svg>